<svg width="194" height="38" viewBox="0 0 194 38" fill="none" xmlns="http://www.w3.org/2000/svg">
<path d="M3.016 36.04L4.648 26.92H1V22.84H5.32L6.808 14.2H2.68V10.12H7.528L9.16 1H13.384L11.752 10.12H18.568L20.2 1H24.424L22.792 10.12H26.44V14.2H22.072L20.584 22.84H24.76V26.92H19.864L18.28 36.04H14.056L15.688 26.92H8.824L7.24 36.04H3.016ZM9.544 22.84H16.36L17.848 14.2H11.032L9.544 22.84Z" stroke="#0071E3" stroke-width="2"/>
<path d="M57.0714 19.1366C56.7002 21.3108 55.981 23.157 54.9137 24.6749C53.8531 26.1929 52.5572 27.3463 51.026 28.1352C49.5013 28.924 47.8574 29.3184 46.0941 29.3184C44.2447 29.3184 42.6505 28.8975 41.3115 28.0556C39.9791 27.2138 39.0146 25.9974 38.418 24.4065C37.8214 22.8089 37.7087 20.8833 38.0799 18.6295C38.4379 16.4486 39.1505 14.5992 40.2177 13.0812C41.285 11.5566 42.5875 10.3965 44.1254 9.60108C45.6633 8.799 47.3172 8.39796 49.087 8.39796C50.9232 8.39796 52.5075 8.8222 53.8399 9.67068C55.1789 10.5192 56.1434 11.7455 56.7333 13.3497C57.3299 14.9472 57.4426 16.8762 57.0714 19.1366ZM52.7859 18.6295C53.0179 17.2308 53.008 16.0575 52.7561 15.1096C52.5108 14.1551 52.0601 13.4325 51.4038 12.942C50.7476 12.4515 49.919 12.2062 48.918 12.2062C47.8309 12.2062 46.8333 12.478 45.9251 13.0215C45.0236 13.5651 44.2613 14.3539 43.6382 15.388C43.0217 16.4155 42.5941 17.665 42.3555 19.1366C42.1169 20.5419 42.1235 21.7152 42.3754 22.6565C42.6339 23.5978 43.0946 24.3104 43.7575 24.7943C44.427 25.2715 45.2589 25.5102 46.2532 25.5102C47.3337 25.5102 48.3214 25.245 49.2163 24.7147C50.1178 24.1778 50.8768 23.3989 51.4933 22.3781C52.1098 21.3506 52.5406 20.1011 52.7859 18.6295Z" fill="#1D1D1F"/>
<path d="M65.3914 29.3383C63.8203 29.3383 62.5277 29.0069 61.5135 28.344C60.506 27.6745 59.8 26.7464 59.3956 25.5599C58.9979 24.3733 58.9283 23.0078 59.1868 21.4633C59.4387 19.8989 59.9657 18.5267 60.7678 17.3468C61.5699 16.1603 62.5874 15.2356 63.8204 14.5727C65.0599 13.9032 66.452 13.5684 67.9965 13.5684C69.3289 13.5684 70.4558 13.8104 71.3772 14.2943C72.2986 14.7782 72.9747 15.4576 73.4056 16.3326C73.8364 17.2076 73.9823 18.2351 73.8431 19.415H69.8559C69.8625 18.6593 69.6669 18.0462 69.2692 17.5755C68.8715 17.1049 68.2882 16.8695 67.5192 16.8695C66.8563 16.8695 66.2465 17.0485 65.6897 17.4065C65.1395 17.7578 64.6721 18.2715 64.2877 18.9477C63.9098 19.6238 63.6447 20.4425 63.4922 21.4036C63.3331 22.3781 63.3298 23.2067 63.4823 23.8894C63.6347 24.5722 63.9264 25.0926 64.3573 25.4505C64.7882 25.8085 65.3317 25.9874 65.988 25.9874C66.4785 25.9874 66.9326 25.888 67.3502 25.6891C67.7744 25.4903 68.1456 25.2019 68.4638 24.8241C68.782 24.4396 69.0273 23.9789 69.1996 23.442H73.1968C72.925 24.6153 72.4311 25.6427 71.7152 26.5244C71.006 27.406 70.1144 28.0954 69.0405 28.5926C67.9667 29.0897 66.7503 29.3383 65.3914 29.3383Z" fill="#1D1D1F"/>
<path d="M85.6332 13.7673L85.1062 16.9491H75.8988L76.4358 13.7673H85.6332ZM79.1204 10.1082H83.3562L80.9897 24.3468C80.9235 24.7379 80.9334 25.0428 81.0196 25.2616C81.1057 25.4737 81.2483 25.6229 81.4471 25.709C81.6526 25.7952 81.8979 25.8383 82.1829 25.8383C82.3818 25.8383 82.584 25.8217 82.7895 25.7886C82.9949 25.7488 83.1507 25.719 83.2568 25.6991L83.4159 28.8511C83.1772 28.924 82.8557 29.0035 82.4514 29.0897C82.0537 29.1759 81.583 29.2289 81.0395 29.2488C80.0054 29.2886 79.1304 29.1527 78.4145 28.8411C77.6985 28.523 77.1848 28.0357 76.8733 27.3795C76.5617 26.7232 76.4954 25.898 76.6744 24.9036L79.1204 10.1082Z" fill="#1D1D1F"/>
<path d="M92.6034 29.3383C91.0456 29.3383 89.7563 29.0069 88.7355 28.344C87.7146 27.6745 86.9954 26.7464 86.5778 25.5599C86.1668 24.3667 86.0906 22.978 86.3491 21.3937C86.601 19.8293 87.1247 18.4605 87.9201 17.2872C88.7156 16.1139 89.7265 15.2024 90.9528 14.5528C92.1791 13.8965 93.5612 13.5684 95.0991 13.5684C96.6502 13.5684 97.9362 13.9032 98.9571 14.5727C99.9779 15.2356 100.697 16.1636 101.115 17.3568C101.532 18.5499 101.612 19.9387 101.353 21.523C101.095 23.0807 100.565 24.4463 99.7625 25.6195C98.9604 26.7928 97.9495 27.7076 96.7298 28.3639C95.5101 29.0135 94.1346 29.3383 92.6034 29.3383ZM93.021 26.057C93.7369 26.057 94.3699 25.8549 94.9201 25.4505C95.477 25.0395 95.9377 24.4827 96.3022 23.7801C96.6735 23.0708 96.932 22.2687 97.0778 21.3738C97.2236 20.4922 97.2336 19.71 97.1076 19.0272C96.9817 18.3378 96.7165 17.7943 96.3122 17.3965C95.9145 16.9988 95.3676 16.7999 94.6716 16.7999C93.9556 16.7999 93.3193 17.0054 92.7625 17.4164C92.2056 17.8208 91.7449 18.3776 91.3804 19.0869C91.0158 19.7962 90.7606 20.6016 90.6147 21.5031C90.4755 22.3781 90.4656 23.1603 90.5849 23.8497C90.7042 24.5324 90.9661 25.0727 91.3704 25.4704C91.7748 25.8615 92.325 26.057 93.021 26.057Z" fill="#1D1D1F"/>
<path d="M113.524 13.7673L112.997 16.9491H103.789L104.326 13.7673H113.524ZM107.011 10.1082H111.247L108.88 24.3468C108.814 24.7379 108.824 25.0428 108.91 25.2616C108.996 25.4737 109.139 25.6229 109.338 25.709C109.543 25.7952 109.789 25.8383 110.074 25.8383C110.272 25.8383 110.475 25.8217 110.68 25.7886C110.886 25.7488 111.041 25.719 111.147 25.6991L111.307 28.8511C111.068 28.924 110.746 29.0035 110.342 29.0897C109.944 29.1759 109.474 29.2289 108.93 29.2488C107.896 29.2886 107.021 29.1527 106.305 28.8411C105.589 28.523 105.075 28.0357 104.764 27.3795C104.452 26.7232 104.386 25.898 104.565 24.9036L107.011 10.1082Z" fill="#1D1D1F"/>
<path d="M119.793 20.2105L118.321 29.04H114.096L117.476 8.67637H121.583L120.31 16.4619H120.479C120.97 15.5604 121.642 14.8544 122.498 14.344C123.353 13.8269 124.364 13.5684 125.53 13.5684C126.591 13.5684 127.476 13.8004 128.185 14.2644C128.901 14.7218 129.408 15.3814 129.706 16.2431C130.005 17.0982 130.054 18.1224 129.856 19.3156L128.225 29.04H123.999L125.49 20.0713C125.643 19.13 125.52 18.3975 125.123 17.8738C124.731 17.3501 124.108 17.0883 123.253 17.0883C122.677 17.0883 122.146 17.2109 121.662 17.4562C121.178 17.7015 120.771 18.0594 120.439 18.5301C120.115 18.9941 119.899 19.5542 119.793 20.2105Z" fill="#1D1D1F"/>
<path d="M138.459 29.3383C136.901 29.3383 135.612 29.0069 134.591 28.344C133.57 27.6745 132.851 26.7464 132.433 25.5599C132.022 24.3667 131.946 22.978 132.205 21.3937C132.456 19.8293 132.98 18.4605 133.776 17.2872C134.571 16.1139 135.582 15.2024 136.808 14.5528C138.035 13.8965 139.417 13.5684 140.955 13.5684C142.506 13.5684 143.792 13.9032 144.813 14.5727C145.833 15.2356 146.553 16.1636 146.97 17.3568C147.388 18.5499 147.467 19.9387 147.209 21.523C146.95 23.0807 146.42 24.4463 145.618 25.6195C144.816 26.7928 143.805 27.7076 142.585 28.3639C141.366 29.0135 139.99 29.3383 138.459 29.3383ZM138.876 26.057C139.592 26.057 140.225 25.8549 140.776 25.4505C141.332 25.0395 141.793 24.4827 142.158 23.7801C142.529 23.0708 142.787 22.2687 142.933 21.3738C143.079 20.4922 143.089 19.71 142.963 19.0272C142.837 18.3378 142.572 17.7943 142.168 17.3965C141.77 16.9988 141.223 16.7999 140.527 16.7999C139.811 16.7999 139.175 17.0054 138.618 17.4164C138.061 17.8208 137.6 18.3776 137.236 19.0869C136.871 19.7962 136.616 20.6016 136.47 21.5031C136.331 22.3781 136.321 23.1603 136.44 23.8497C136.56 24.5324 136.822 25.0727 137.226 25.4704C137.63 25.8615 138.18 26.057 138.876 26.057Z" fill="#1D1D1F"/>
<path d="M148.71 29.04L151.256 13.7673H155.362L154.915 16.432H155.074C155.511 15.4841 156.098 14.7682 156.834 14.2843C157.576 13.7938 158.375 13.5485 159.23 13.5485C159.442 13.5485 159.664 13.5618 159.896 13.5883C160.135 13.6082 160.347 13.6413 160.533 13.6877L159.896 17.4562C159.711 17.3899 159.446 17.3369 159.101 17.2971C158.763 17.2507 158.441 17.2275 158.136 17.2275C157.52 17.2275 156.947 17.3634 156.416 17.6352C155.886 17.9003 155.438 18.2715 155.074 18.7488C154.716 19.2261 154.481 19.7763 154.368 20.3994L152.946 29.04H148.71Z" fill="#1D1D1F"/>
<path d="M159.243 34.7673L162.762 13.7673H166.939L166.511 16.3326H166.7C166.952 15.9216 167.287 15.504 167.704 15.0798C168.128 14.6489 168.655 14.2909 169.285 14.0059C169.915 13.7142 170.654 13.5684 171.503 13.5684C172.623 13.5684 173.601 13.8601 174.436 14.4434C175.271 15.0201 175.874 15.8918 176.245 17.0585C176.623 18.2185 176.666 19.6735 176.375 21.4235C176.096 23.1271 175.583 24.5656 174.833 25.7389C174.091 26.9055 173.199 27.7905 172.159 28.3937C171.125 28.9903 170.028 29.2886 168.868 29.2886C168.046 29.2886 167.369 29.1527 166.839 28.8809C166.315 28.6091 165.908 28.2677 165.616 27.8568C165.324 27.4392 165.119 27.0182 165 26.594H164.841L163.488 34.7673H159.243ZM165.636 21.4036C165.49 22.3118 165.484 23.1039 165.616 23.7801C165.755 24.4562 166.034 24.9832 166.451 25.361C166.869 25.7322 167.419 25.9178 168.102 25.9178C168.791 25.9178 169.405 25.7289 169.941 25.3511C170.478 24.9666 170.926 24.4363 171.284 23.7602C171.642 23.0774 171.897 22.2919 172.049 21.4036C172.189 20.522 172.192 19.7464 172.059 19.0769C171.927 18.4074 171.655 17.8838 171.244 17.5059C170.833 17.1281 170.276 16.9391 169.574 16.9391C168.891 16.9391 168.278 17.1214 167.734 17.486C167.197 17.8506 166.75 18.3677 166.392 19.0372C166.034 19.7067 165.782 20.4955 165.636 21.4036Z" fill="#1D1D1F"/>
<path d="M184.834 29.3383C183.269 29.3383 181.974 29.0201 180.946 28.3838C179.919 27.7408 179.196 26.8326 178.778 25.6593C178.367 24.4794 178.298 23.084 178.57 21.4732C178.835 19.9022 179.368 18.5234 180.17 17.3369C180.979 16.1503 181.993 15.2256 183.213 14.5627C184.433 13.8999 185.792 13.5684 187.29 13.5684C188.297 13.5684 189.209 13.7308 190.024 14.0556C190.846 14.3738 191.529 14.8577 192.072 15.5073C192.616 16.1503 192.987 16.9557 193.186 17.9235C193.392 18.8913 193.388 20.0249 193.176 21.3241L192.987 22.4874H180.101L180.509 19.8624H189.418C189.517 19.2526 189.477 18.7124 189.298 18.2417C189.119 17.7711 188.821 17.4032 188.403 17.138C187.986 16.8662 187.472 16.7303 186.862 16.7303C186.239 16.7303 185.656 16.8828 185.112 17.1877C184.569 17.4927 184.111 17.8937 183.74 18.3909C183.376 18.8814 183.14 19.415 183.034 19.9917L182.567 22.5968C182.434 23.3989 182.461 24.0651 182.646 24.5954C182.839 25.1257 183.17 25.5234 183.641 25.7886C184.111 26.0471 184.708 26.1764 185.43 26.1764C185.901 26.1764 186.342 26.1101 186.753 25.9775C187.17 25.8449 187.542 25.6494 187.867 25.3909C188.191 25.1257 188.456 24.7976 188.662 24.4065L192.53 24.665C192.172 25.6063 191.628 26.4283 190.899 27.1309C190.17 27.8269 189.292 28.3705 188.264 28.7616C187.243 29.1461 186.1 29.3383 184.834 29.3383Z" fill="#1D1D1F"/>
</svg>
